inDegrees=yes
name=ik_S57_A06_T01
DataType=double
version=3
OpenSimVersion=4.3-2021-08-27-4bc7ad9
endheader
time	pelvis_tilt	pelvis_list	pelvis_rotation	pelvis_tx	pelvis_ty	pelvis_tz	hip_flexion_r	hip_adduction_r	hip_rotation_r	knee_angle_r	knee_angle_r_beta	ankle_angle_r	subtalar_angle_r	mtp_angle_r	hip_flexion_l	hip_adduction_l	hip_rotation_l	knee_angle_l	knee_angle_l_beta	ankle_angle_l	subtalar_angle_l	mtp_angle_l	lumbar_extension	lumbar_bending	lumbar_rotation	arm_flex_r	arm_add_r	arm_rot_r	elbow_flex_r	pro_sup_r	wrist_flex_r	wrist_dev_r	arm_flex_l	arm_add_l	arm_rot_l	elbow_flex_l	pro_sup_l	wrist_flex_l	wrist_dev_l
7.139999999999936	-6.956124710567684	-2.694617039832241	-2.919914723434958	0	0.9399999999999999	0	21.14841074974962	-8.131614026633052	-6.785654308705788	24.19406410756403	0.4222660781155758	0	0	0	21.14841074974962	-8.131614026633052	-6.785654308705788	24.19406410756403	0.4222660781155758	0	0	0	-6.963154920930214	-2.970687475830343	-1.64646730798197	26.88462148404564	15.76212752550031	6.649831808089204	38.87066803503481	136.6409335406309	0	0	64.07891174248574	-33.2887605305012	40.0432062174388	34.24588245528418	58.61144212239475	0	0
7.159999999999935	-7.000767016638626	-2.647906062370829	-3.165417965752179	0	0.9399999999999999	0	21.15870549569722	-8.134159623951939	-6.788466569366212	24.20434896315315	0.4224455827086982	0	0	0	21.15870549569722	-8.134159623951939	-6.788466569366212	24.20434896315315	0.4224455827086982	0	0	0	-7.009986648074113	-2.927800634709321	-1.632099656919269	27.00884185351194	15.88764424949192	6.677524582342134	38.73044098499136	136.7800717856155	0	0	64.5372699815201	-32.68164646503101	40.8409361084604	34.58325064280921	58.83359174399566	0	0
7.179999999999935	-7.005869424554247	-2.651577102352959	-3.29507808668932	0	0.9399999999999999	0	21.17553019867264	-8.138319191164451	-6.793063074633644	24.22114427331947	0.4227387161699941	0	0	0	21.17553019867264	-8.138319191164451	-6.793063074633644	24.22114427331947	0.4227387161699941	0	0	0	-7.009477742251731	-2.945821129614731	-1.514098388227305	27.14086579842428	16.04807782091684	6.412042130230613	38.45834318502282	137.0639734230022	0	0	65.00607845121517	-31.87932804148615	41.91121857327708	34.86106728381411	58.83671017031682	0	0
7.199999999999934	-7.055338706317165	-2.602109704602217	-3.541729718059287	0	0.9399999999999999	0	21.18641881601875	-8.141005944062858	-6.796034985814983	24.23202125846529	0.4229285553734791	0	0	0	21.18641881601875	-8.141005944062858	-6.796034985814983	24.23202125846529	0.4229285553734791	0	0	0	-7.061055866022089	-2.903355374120216	-1.478737696348599	27.29796796271004	16.17527699498378	6.397543904662367	38.2625658494277	137.3078827739376	0	0	65.447276796506	-31.13845479075579	42.81918253240028	35.18401390652923	58.66480448593473	0	0
7.219999999999934	-7.060234029331378	-2.605391175034617	-3.677952157769046	0	0.9399999999999999	0	21.20215715389069	-8.14488828634078	-6.800330673666437	24.2477321439791	0.423202762054099	0	0	0	21.20215715389069	-8.14488828634078	-6.800330673666437	24.2477321439791	0.423202762054099	0	0	0	-7.060166254292032	-2.921647028560603	-1.356567791371423	27.44623813749284	16.33646407049055	6.069909791388667	38.03904540438885	137.4727851621365	0	0	65.92505525130034	-30.27672208276442	44.00075465180666	35.36172134212765	58.51010142914395	0	0
7.239999999999934	-7.122288639554146	-2.515310302354188	-4.170209386641108	0	0.9399999999999999	0	21.21676896250306	-8.148488374210467	-6.804316877247385	24.26231797988756	0.4234573329148573	0	0	0	21.21676896250306	-8.148488374210467	-6.804316877247385	24.26231797988756	0.4234573329148573	0	0	0	-7.135664361951025	-2.816320995376331	-1.513787641782346	27.59473111691491	16.57426795444626	6.334499796858296	37.6885587243228	137.8788959015003	0	0	66.30083302204383	-29.8950876758885	44.54916467369264	35.49751207359392	58.43569524048573	0	0
7.259999999999933	-7.115609051201893	-2.509965474689007	-4.284304204842647	0	0.9399999999999999	0	21.22707881981835	-8.151023688934494	-6.807126758132632	24.27261760475086	0.4236370952804422	0	0	0	21.22707881981835	-8.151023688934494	-6.807126758132632	24.27261760475086	0.4236370952804422	0	0	0	-7.124432537599521	-2.825546202595153	-1.392165330947922	27.74870921257911	16.63857436185363	6.027982580565617	37.53011989857259	137.9740985357381	0	0	66.68101871897765	-29.01658939849095	45.53752604063125	35.64685196206623	58.26082815882772	0	0
7.279999999999933	-7.181833239718954	-2.401957054550396	-4.734312308782873	0	0.9399999999999999	0	21.28020069946287	-8.161431334568123	-6.819818609603749	24.33578651034863	0.4247396006680048	0	0	0	21.28020069946287	-8.161431334568123	-6.819818609603749	24.33578651034863	0.4247396006680048	0	0	0	-7.210908466140963	-2.693101590895841	-1.657530105743608	27.84542817460648	16.83854692263891	6.633596160462527	37.27057812184578	138.1128089471216	0	0	67.43756988417721	-27.8129533497289	47.03634421883653	34.50472975961665	57.36289194595722	0	0
7.299999999999932	-7.187150050638921	-2.403102183725184	-4.856007452663217	0	0.9399999999999999	0	21.2948827467915	-8.165028804692323	-6.823814128729679	24.3504414751101	0.424995378054856	0	0	0	21.2948827467915	-8.165028804692323	-6.823814128729679	24.3504414751101	0.424995378054856	0	0	0	-7.210674839489688	-2.710807138089326	-1.529753014369701	27.96111476973989	16.95847895538667	6.486137676765041	37.1083705401191	138.2427434666258	0	0	67.77129471724946	-26.93407928273442	48.10417297738892	34.44384496355286	57.10951439643037	0	0
7.319999999999932	-7.298376757585274	-2.307781449252424	-5.347278056439957	0	0.9399999999999999	0	21.30371113368754	-8.167187553354186	-6.826214089138355	24.35926223190415	0.42514932930343	0	0	0	21.30371113368754	-8.167187553354186	-6.826214089138355	24.35926223190415	0.42514932930343	0	0	0	-7.335639152129176	-2.609613471560653	-1.651978022147842	28.13799166465913	17.13515603029111	7.022962939228887	36.88988166537847	138.2414980955217	0	0	67.91419362439966	-26.44867566875928	48.58116325816179	35.25888823888042	57.01406771728571	0	0
7.339999999999931	-7.348645659757932	-2.25525312696165	-5.650059019905261	0	0.9399999999999999	0	21.31471755326432	-8.169878746779977	-6.829206469689914	24.37025217603691	0.4253411400131568	0	0	0	21.31471755326432	-8.169878746779977	-6.829206469689914	24.37025217603691	0.4253411400131568	0	0	0	-7.393102911732509	-2.555343807799449	-1.703399400363669	28.25722623991089	17.27743817658698	7.212385360901783	36.7020141822123	138.4206937323167	0	0	68.25990681520787	-25.91260667101538	49.230775012138	34.63568174134303	56.57074858812331	0	0
7.359999999999931	-7.403311031112842	-2.211499459248435	-5.967966308969989	0	0.9399999999999999	0	21.32623195921711	-8.172692437081052	-6.832336310729264	24.38174663288889	0.4255417561309523	0	0	0	21.32623195921711	-8.172692437081052	-6.832336310729264	24.38174663288889	0.4255417561309523	0	0	0	-7.45449095806871	-2.509370443689865	-1.763374025340379	28.37030136542449	17.45480613136858	7.392627906053708	36.46782345982594	138.645911300755	0	0	68.38677907891086	-25.37030844722873	49.73140038760453	34.6859121203209	56.52885526780197	0	0
7.379999999999931	-7.404229921686198	-2.208936235712561	-6.067932658807176	0	0.9399999999999999	0	21.34117958640421	-8.176342323055399	-6.836398360719381	24.39666337699949	0.4258021024293597	0	0	0	21.34117958640421	-8.176342323055399	-6.836398360719381	24.39666337699949	0.4258021024293597	0	0	0	-7.451803299761775	-2.519038612406499	-1.668176755266176	28.45039902537737	17.55264404193376	7.162756197129929	36.27226175945585	138.8487560805441	0	0	68.52531201257952	-24.57390619067287	50.43835021814148	34.38470184898641	56.27764611354226	0	0
7.39999999999993	-7.52955701647205	-2.118982097557632	-6.550644684955416	0	0.9399999999999999	0	21.35050284427291	-8.178614241505873	-6.838929335115523	24.40597569865795	0.4259646331033047	0	0	0	21.35050284427291	-8.178614241505873	-6.838929335115523	24.40597569865795	0.4259646331033047	0	0	0	-7.593996835266952	-2.41752181440668	-1.860917427008939	28.6269040558581	17.77824714507707	7.602023805924978	36.06472084422674	139.0129103495563	0	0	68.71788380398688	-24.36560910130061	50.59889320751458	34.05423004395116	56.20959306136869	0	0
7.41999999999993	-7.609545947825317	-2.077487503861382	-6.827731146233126	0	0.9399999999999999	0	21.36022165366784	-8.180981565278794	-6.84156738938607	24.4156802481123	0.4261340094437056	0	0	0	21.36022165366784	-8.180981565278794	-6.84156738938607	24.4156802481123	0.4261340094437056	0	0	0	-7.680706938857732	-2.377106568535001	-1.923934964263156	28.80888627136886	17.93107286391282	7.665264891393869	35.82732181019744	139.1804787285642	0	0	68.93198612761041	-23.9268649441856	51.05377672849372	33.5432328281701	56.16947868579742	0	0
7.439999999999929	-7.676513610909901	-2.044556192757831	-7.112957466044459	0	0.9399999999999999	0	21.37624576479832	-8.184884345118512	-6.845917538470585	24.43166702082058	0.4264130312642332	0	0	0	21.37624576479832	-8.184884345118512	-6.845917538470585	24.43166702082058	0.4264130312642332	0	0	0	-7.753827258167369	-2.342460748083533	-1.998589055082597	28.95250689656232	18.10623949514745	7.718634032521559	35.58475468002684	139.446503155341	0	0	69.24812445435937	-23.58311758005432	51.59380927270891	32.92465320844332	55.73538989812828	0	0
7.459999999999929	-7.728180368183174	-2.006591292381458	-7.409162009292675	0	0.9399999999999999	0	21.38805287659763	-8.18775359789937	-6.84911921429466	24.44345773588186	0.426618818063217	0	0	0	21.38805287659763	-8.18775359789937	-6.84911921429466	24.44345773588186	0.426618818063217	0	0	0	-7.81270458201776	-2.300221685171031	-2.079163657377145	28.95527476559637	18.19023114613887	8.119195435074191	35.55896990464041	139.4306163747249	0	0	69.4293705358684	-23.30143849607384	52.09469746998363	32.52101514516956	55.45983317799283	0	0
7.479999999999928	-7.791533455354704	-1.981020918089602	-7.636528125364789	0	0.9399999999999999	0	21.39428350099339	-8.189262242665029	-6.850805308689035	24.44969490508343	0.4267276772017884	0	0	0	21.39428350099339	-8.189262242665029	-6.850805308689035	24.44969490508343	0.4267276772017884	0	0	0	-7.8824443947092	-2.26893227426357	-2.18159520839336	29.0870054418195	18.35263216292428	8.190732769536652	35.40832481373158	139.5516432352166	0	0	69.38943207326912	-23.51504088754276	51.93042812789155	32.66328220193476	55.75929804620196	0	0
7.499999999999928	-7.847990365633263	-1.949892220172323	-7.918251627333594	0	0.9399999999999999	0	21.40576450487811	-8.192048021810226	-6.853916536485196	24.46116045113831	0.4269277887309851	0	0	0	21.40576450487811	-8.192048021810226	-6.853916536485196	24.46116045113831	0.4269277887309851	0	0	0	-7.945424587593201	-2.233950052563956	-2.266270370171545	29.10815795440502	18.46215243232501	8.549268984948243	35.30147089515198	139.5106649516978	0	0	69.55134510256582	-23.26967431047618	52.33001539013612	32.21295798924218	55.75940406871169	0	0
7.519999999999928	-7.920917987043826	-1.920222323903849	-8.143692529734274	0	0.9399999999999999	0	21.41778643291441	-8.194962429601071	-6.857173137784789	24.47316573970959	0.4271373205442058	0	0	0	21.41778643291441	-8.194962429601071	-6.857173137784789	24.47316573970959	0.4271373205442058	0	0	0	-8.024742389256531	-2.202479504084875	-2.352938340992429	29.27990903755192	18.66530565665265	8.39560928067749	35.00223864619522	139.8600370735025	0	0	69.5327436022655	-23.49042072600576	52.14942554894741	32.36743757640768	55.97089524404203	0	0
7.539999999999927	-8.003931483027968	-1.900868636111237	-8.411788459018123	0	0.9399999999999999	0	21.43070091267114	-8.198091225078082	-6.860670857324029	24.48605751445169	0.427362324459881	0	0	0	21.43070091267114	-8.198091225078082	-6.860670857324029	24.48605751445169	0.427362324459881	0	0	0	-8.109924908224905	-2.19581694596052	-2.350755877297227	29.41174108922869	18.80065602108631	8.438591959388351	34.88505807475346	140.0208752319512	0	0	69.855042165591	-22.76093640870693	53.10379836291851	31.44597401796916	55.39620266189888	0	0
7.559999999999927	-8.170856345374624	-1.869634578901415	-8.871765486932661	0	0.9399999999999999	0	21.43654935741142	-8.199500930668853	-6.862250222327662	24.49191711291257	0.4274645937458681	0	0	0	21.43654935741142	-8.199500930668853	-6.862250222327662	24.49191711291257	0.4274645937458681	0	0	0	-8.286660628540645	-2.159641726268271	-2.561599538734493	29.56995377946582	19.0514603286109	9.070117206548566	34.84286259644801	140.0016399588154	0	0	70.12781230600699	-22.94761578401528	53.19461419237875	31.18873592463047	55.38594436333798	0	0
